<?xml version="1.0" encoding="UTF-8" standalone="no"?>
<svg
   xmlns:dc="http://purl.org/dc/elements/1.1/"
   xmlns:cc="http://creativecommons.org/ns#"
   xmlns:rdf="http://www.w3.org/1999/02/22-rdf-syntax-ns#"
   xmlns:svg="http://www.w3.org/2000/svg"
   xmlns="http://www.w3.org/2000/svg"
   viewBox="0 0 467.56891 246.59174"
   height="246.59174"
   width="467.56891"
   id="svg964"
   version="1.1">
  <metadata
     id="metadata970">
    <rdf:RDF>
      <cc:Work
         rdf:about="">
        <dc:format>image/svg+xml</dc:format>
        <dc:type
           rdf:resource="http://purl.org/dc/dcmitype/StillImage" />
        <dc:title></dc:title>
      </cc:Work>
    </rdf:RDF>
  </metadata>
  <defs
     id="defs968" />
  <g
     transform="translate(-114.77424,-93.172288)"
     style="display:none"
     id="layer1" />
  <g
     transform="translate(-114.77424,-93.172288)"
     style="display:none"
     id="layer2" />
  <path
     id="path5246"
     d="m 124.3929,175.167 c -54.789276,0 -45.260706,82.89857 -9.05214,18.10428 C 151.54933,128.477 43.400054,174.21414 112.95862,120.85414 182.51719,67.494142 124.3929,175.167 124.3929,175.167 Z"
     style="fill:none;stroke:#eaeaff;stroke-width:1px;stroke-linecap:butt;stroke-linejoin:miter;stroke-opacity:0" />
  <text
     id="text5320"
     y="41.197617"
     x="308.35443"
     style="font-style:normal;font-weight:normal;font-size:40px;line-height:1.25;font-family:sans-serif;letter-spacing:0px;word-spacing:0px;fill:#000000;fill-opacity:1;stroke:none"
     xml:space="preserve"><tspan
       style="font-style:normal;font-variant:normal;font-weight:normal;font-stretch:normal;font-family:Uroob;-inkscape-font-specification:Uroob"
       id="tspan5322"
       y="76.588242"
       x="308.35443" /></text>
  <g
     transform="translate(-114.77424,-93.172288)"
     style="display:inline"
     id="layer3">
    <g
       style="stroke:#dddddd;stroke-opacity:1"
       id="g5370">
      <path
         style="display:inline;fill:none;stroke:#dddddd;stroke-width:1.60000002;stroke-linecap:butt;stroke-linejoin:miter;stroke-miterlimit:4;stroke-dasharray:none;stroke-dashoffset:0;stroke-opacity:1"
         d="m 411.63429,235.46571 c 136.25857,-2.85857 143.88142,-131.49428 143.88142,-131.49428 0,0 -24.77428,45.73714 -40.97285,37.16143"
         id="path5232" />
      <path
         style="display:inline;fill:none;stroke:#dddddd;stroke-width:1.60000002;stroke-linecap:butt;stroke-linejoin:miter;stroke-miterlimit:4;stroke-dasharray:none;stroke-opacity:1"
         d="m 555.51571,103.97143 c 0,0 11.43429,43.83143 26.68,40.97286"
         id="path5234" />
      <path
         style="fill:none;stroke:#dddddd;stroke-width:1.2020911;stroke-linecap:butt;stroke-linejoin:miter;stroke-miterlimit:4;stroke-dasharray:none;stroke-opacity:1"
         d="m 282.97755,266.81571 c 257.63335,-0.95285 258.24531,-0.95285 258.24531,-0.95285"
         id="path5244" />
      <path
         style="fill:none;fill-rule:evenodd;stroke:#dddddd;stroke-width:1.60000002;stroke-miterlimit:4;stroke-dasharray:none;stroke-opacity:1"
         id="path5250"
         d="m 194.04625,267.7767 c 1.79044,-4.02004 6.30227,0.43013 6.68157,2.97583 1.02787,6.89868 -6.7226,11.04511 -12.63322,10.38731 -10.57271,-1.17664 -16.1519,-12.62636 -14.09306,-22.29061 3.02144,-14.18269 18.59493,-21.36778 31.94801,-17.79881 17.79755,4.75689 26.6276,24.58451 21.50455,41.60541 -6.44684,21.41906 -30.58361,31.90964 -51.2628,25.21029 -25.04527,-8.1138 -37.20444,-36.58797 -28.91604,-60.92019 9.7676,-28.67468 42.59561,-42.50725 70.57759,-32.62178 32.30631,11.41316 47.81539,48.60542 36.32753,80.23498 -13.05325,35.93952 -54.61678,53.12728 -89.89238,40.03327 -39.5739,-14.6895 -58.44188,-60.62925 -43.73902,-99.54977 16.32297,-43.20916 66.64258,-63.75852 109.20717,-47.44476" />
      <path
         style="fill:none;stroke:#dddddd;stroke-width:1.5;stroke-linecap:butt;stroke-linejoin:miter;stroke-miterlimit:4;stroke-dasharray:none;stroke-opacity:1"
         d="m 119.93137,120.2207 c 113.19365,0 113.19365,0 113.19365,0"
         id="path5252" />
      <path
         style="fill:none;stroke:#dddddd;stroke-width:1.5;stroke-linecap:butt;stroke-linejoin:miter;stroke-miterlimit:4;stroke-dasharray:none;stroke-opacity:1"
         d="m 162.37899,139.08631 c 159.6839,0 159.6839,0 159.6839,0"
         id="path5252-3" />
      <path
         style="fill:none;stroke:#dddddd;stroke-width:1.5;stroke-linecap:butt;stroke-linejoin:miter;stroke-miterlimit:4;stroke-dasharray:none;stroke-opacity:1"
         d="m 206.84792,157.95192 c 188.65609,0 188.65609,0 188.65609,0"
         id="path5252-6" />
      <path
         style="fill:none;stroke:#dddddd;stroke-width:1.5;stroke-linecap:butt;stroke-linejoin:miter;stroke-miterlimit:4;stroke-dasharray:none;stroke-opacity:1"
         d="m 120.60514,106.7879 c 65.35587,0 65.35587,0 65.35587,0"
         id="path5252-7" />
      <rect
         style="opacity:1;fill:none;fill-opacity:1;stroke:#dddddd;stroke-width:1.5;stroke-miterlimit:4;stroke-dasharray:none;stroke-opacity:1"
         id="rect5297"
         width="50"
         height="50"
         x="368.55313"
         y="255.64882" />
      <rect
         style="opacity:1;fill:none;fill-opacity:1;stroke:#dddddd;stroke-width:1.5;stroke-miterlimit:4;stroke-dasharray:none;stroke-opacity:1"
         id="rect5299"
         width="35"
         height="35"
         x="398.1991"
         y="286.64233" />
      <rect
         style="opacity:1;fill:none;fill-opacity:1;stroke:#dddddd;stroke-width:1.5;stroke-miterlimit:4;stroke-dasharray:none;stroke-opacity:1"
         id="rect5301"
         width="20.213152"
         height="20.213152"
         x="444.68933"
         y="273.84064" />
      <path
         style="fill:none;stroke:#dddddd;stroke-width:1.5;stroke-linecap:butt;stroke-linejoin:miter;stroke-miterlimit:4;stroke-dasharray:none;stroke-opacity:1"
         d="m 121.59448,93.922288 c 35.03614,0 35.03614,0 35.03614,0"
         id="path5252-7-6" />
    </g>
  </g>
</svg>
