<?xml version="1.0" encoding="UTF-8" standalone="no"?>
<svg
   xmlns:osb="http://www.openswatchbook.org/uri/2009/osb"
   xmlns:dc="http://purl.org/dc/elements/1.1/"
   xmlns:cc="http://creativecommons.org/ns#"
   xmlns:rdf="http://www.w3.org/1999/02/22-rdf-syntax-ns#"
   xmlns:svg="http://www.w3.org/2000/svg"
   xmlns="http://www.w3.org/2000/svg"
   xmlns:xlink="http://www.w3.org/1999/xlink"
   id="svg8"
   version="1.1"
   viewBox="0 0 60.104168 34.350315"
   height="34.350315mm"
   width="60.104168mm">
  <defs
     id="defs2">
    <linearGradient
       osb:paint="solid"
       id="linearGradient2495">
      <stop
         id="stop2493"
         offset="0"
         style="stop-color:#000000;stop-opacity:1;" />
    </linearGradient>
    <linearGradient
       osb:paint="solid"
       id="linearGradient2477">
      <stop
         id="stop2475"
         offset="0"
         style="stop-color:#000000;stop-opacity:1;" />
    </linearGradient>
    <linearGradient
       osb:paint="solid"
       id="linearGradient2469">
      <stop
         id="stop2467"
         offset="0"
         style="stop-color:#000000;stop-opacity:1;" />
    </linearGradient>
    <linearGradient
       osb:paint="solid"
       id="linearGradient2461">
      <stop
         id="stop2459"
         offset="0"
         style="stop-color:#000000;stop-opacity:1;" />
    </linearGradient>
    <linearGradient
       osb:paint="solid"
       id="linearGradient2453">
      <stop
         id="stop2451"
         offset="0"
         style="stop-color:#000000;stop-opacity:1;" />
    </linearGradient>
    <linearGradient
       osb:paint="solid"
       id="linearGradient2418">
      <stop
         id="stop2416"
         offset="0"
         style="stop-color:#000000;stop-opacity:1;" />
    </linearGradient>
    <linearGradient
       osb:paint="solid"
       id="linearGradient952">
      <stop
         id="stop950"
         offset="0"
         style="stop-color:#000000;stop-opacity:1;" />
    </linearGradient>
    <linearGradient
       osb:paint="solid"
       id="linearGradient946">
      <stop
         id="stop944"
         offset="0"
         style="stop-color:#000000;stop-opacity:1;" />
    </linearGradient>
    <linearGradient
       osb:paint="solid"
       id="linearGradient936">
      <stop
         id="stop934"
         offset="0"
         style="stop-color:#000000;stop-opacity:1;" />
    </linearGradient>
    <linearGradient
       osb:paint="solid"
       id="linearGradient926">
      <stop
         id="stop924"
         offset="0"
         style="stop-color:#000000;stop-opacity:0;" />
    </linearGradient>
    <linearGradient
       osb:paint="solid"
       id="linearGradient918">
      <stop
         id="stop916"
         offset="0"
         style="stop-color:#000000;stop-opacity:0;" />
    </linearGradient>
    <linearGradient
       gradientUnits="userSpaceOnUse"
       y2="77.395836"
       x2="50.270832"
       y1="77.395836"
       x1="34.395832"
       id="linearGradient920"
       xlink:href="#linearGradient918" />
    <linearGradient
       gradientUnits="userSpaceOnUse"
       y2="77.395836"
       x2="50.270832"
       y1="77.395836"
       x1="34.395832"
       id="linearGradient928"
       xlink:href="#linearGradient918" />
    <linearGradient
       gradientUnits="userSpaceOnUse"
       y2="54.001846"
       x2="39.6875"
       y1="54.001846"
       x1="11.090166"
       id="linearGradient938"
       xlink:href="#linearGradient936" />
    <linearGradient
       gradientUnits="userSpaceOnUse"
       y2="107.82292"
       x2="113.77083"
       y1="107.82292"
       x1="58.208332"
       id="linearGradient948"
       xlink:href="#linearGradient946" />
    <linearGradient
       gradientUnits="userSpaceOnUse"
       y2="107.82292"
       x2="113.90312"
       y1="107.82292"
       x1="58.076038"
       id="linearGradient954"
       xlink:href="#linearGradient952" />
    <linearGradient
       gradientTransform="translate(3.96875,-5.2916673)"
       gradientUnits="userSpaceOnUse"
       y2="40.270836"
       x2="55.528332"
       y1="40.270836"
       x1="34.263332"
       id="linearGradient2455"
       xlink:href="#linearGradient2453" />
    <linearGradient
       gradientUnits="userSpaceOnUse"
       y2="35.0625"
       x2="58.340836"
       y1="35.0625"
       x1="39.555"
       id="linearGradient2471"
       xlink:href="#linearGradient2469" />
    <linearGradient
       gradientUnits="userSpaceOnUse"
       y2="34.979164"
       x2="62.764584"
       y1="34.979164"
       x1="34.964581"
       id="linearGradient2479"
       xlink:href="#linearGradient926" />
  </defs>
  <metadata
     id="metadata5">
    <rdf:RDF>
      <cc:Work
         rdf:about="">
        <dc:format>image/svg+xml</dc:format>
        <dc:type
           rdf:resource="http://purl.org/dc/dcmitype/StillImage" />
        <dc:title></dc:title>
      </cc:Work>
    </rdf:RDF>
  </metadata>
  <g
     transform="translate(-49.770832,-12.566355)"
     id="layer1">
    <rect
       style="opacity:0;fill:url(#linearGradient920);fill-opacity:1;stroke-width:0.26458332"
       y="69.458336"
       x="34.395832"
       height="11"
       width="11"
       id="rect95" />
    <rect
       y="69.458336"
       x="34.395832"
       height="11"
       width="11"
       id="rect922"
       style="opacity:0;fill:url(#linearGradient928);fill-opacity:1;stroke-width:0.26458332" />
    <path
       d="m 39.687499,61.520832 -10.210629,-0.83876 -6.479512,7.935767 -2.35755,-9.970076 -9.549642,-3.710094 8.753583,-5.323086 0.577508,-10.228732 7.767562,6.680228 9.906561,-2.61161 -3.952965,9.451695 z"
       id="path932"
       style="opacity:0;fill:url(#linearGradient938);fill-opacity:1;stroke-width:0.26458332" />
    <rect
       y="69.458336"
       x="58.208332"
       height="11"
       width="11"
       id="rect942"
       style="opacity:0;fill:url(#linearGradient948);fill-opacity:1;stroke:url(#linearGradient954);stroke-width:0.26458332;stroke-opacity:1" />
    <rect
       y="35.0625"
       x="42.333332"
       height="11"
       width="11"
       id="rect2432"
       style="opacity:0;fill:none;fill-opacity:1;stroke:#000000;stroke-width:0.26499999;stroke-miterlimit:4;stroke-dasharray:none;stroke-opacity:1" />
    <rect
       y="87.979164"
       x="60.854164"
       height="11"
       width="11"
       id="rect2434"
       style="opacity:0;fill:none;fill-opacity:1;stroke:#000000;stroke-width:0.26499999;stroke-miterlimit:4;stroke-dasharray:none;stroke-opacity:1" />
    <rect
       y="25.802082"
       x="39.6875"
       height="11"
       width="11"
       id="rect2465"
       style="opacity:0;fill:url(#linearGradient2471);fill-opacity:1;stroke:#000000;stroke-width:0.26499999;stroke-miterlimit:4;stroke-dasharray:none;stroke-opacity:1" />
    <g
       id="g6349">
      <path
         id="rect2473"
         d="m 58.208332,23.15625 h 11 v 11 h -11 z"
         style="opacity:0;fill:#000000;fill-opacity:0;stroke:#000000;stroke-width:0.26499999;stroke-miterlimit:4;stroke-dasharray:none;stroke-opacity:1" />
      <path
         id="rect2491"
         d="m 50.270832,32.416668 h 11 v 11 h -11 z"
         style="opacity:1;fill:#000000;fill-opacity:0;stroke:#000000;stroke-width:1;stroke-miterlimit:4;stroke-dasharray:none;stroke-opacity:1" />
      <path
         id="rect2491-3"
         d="m 95.25,26.708334 h 11 v 11 h -11 z"
         style="opacity:1;fill:#000000;fill-opacity:0;stroke:#000000;stroke-width:1;stroke-miterlimit:4;stroke-dasharray:none;stroke-opacity:1" />
      <path
         id="rect2491-3-6"
         d="m 55.5625,23.708336 h 30 v 14 h -30 z"
         style="opacity:1;fill:#000000;fill-opacity:0;stroke:#000000;stroke-width:1;stroke-miterlimit:4;stroke-dasharray:none;stroke-opacity:1" />
      <path
         id="rect2491-3-6-7"
         d="m 79.375,32.416668 h 30 v 14 h -30 z"
         style="opacity:1;fill:#000000;fill-opacity:0;stroke:#000000;stroke-width:1;stroke-miterlimit:4;stroke-dasharray:none;stroke-opacity:1" />
      <g
         id="flowRoot2556"
         style="font-style:normal;font-variant:normal;font-weight:bold;font-stretch:normal;font-size:48px;line-height:1.25;font-family:Purisa;-inkscape-font-specification:'Purisa Bold';letter-spacing:0px;word-spacing:0px;fill:#000000;fill-opacity:1;stroke:none"
         transform="matrix(0.25897801,0,0,0.26458333,17.00468,-0.4235044)"
         aria-label="Logos">
        <path
           id="path6356"
           style=""
           d="m 199.656,50.967531 q 0,-1.872 1.344,-1.872 0.624,0 1.152,0.528 0.576,0.528 0.816,1.008 0.24,0.48 0.336,0.768 0.624,2.016 1.344,15.888 0.72,13.824 1.44,15.024 0.144,0.288 1.008,0.288 1.488,0 6.192,-1.008 4.704,-1.008 8.832,-1.968 4.176,-1.008 4.368,-1.008 0.816,0 1.632,0.672 0.816,0.624 0.816,1.536 0,0.72 -1.104,1.584 -1.632,1.296 -9.552,3.168 -7.92,1.824 -12.72,1.824 -3.36,0 -4.08,-2.496 -0.672,-2.544 -1.248,-15.936 0,-0.192 0,-0.336 0,-0.144 -0.048,-0.336 0,-0.192 0,-0.336 -0.528,-12.288 -0.528,-16.992 z" />
        <path
           id="path6358"
           style=""
           d="m 239.10075,65.271531 q 4.032,-3.456 6.864,-4.56 2.88,-1.104 7.2,-1.104 6.672,0 8.352,3.744 0.96,2.112 0.96,5.232 0,4.944 -2.4,10.08 -2.352,5.136 -6,7.2 -3.552,1.968 -7.536,1.968 -5.856,0 -8.928,-3.456 -2.16,-2.4 -2.832,-4.08 -0.624,-1.728 -0.624,-4.752 0,-6 4.944,-10.272 z m 8.688,18.576 q 3.936,0 7.248,-4.992 3.36,-5.04 3.36,-11.424 0,-0.672 -0.144,-1.056 -0.096,-0.384 -0.24,-0.528 -0.144,-0.192 -0.528,-0.48 -1.728,-1.248 -3.648,-1.248 -0.288,0 -0.816,0.096 -0.48,0.048 -1.488,0.192 -0.96,0.096 -2.112,0.192 -1.584,0.144 -2.592,0.624 -0.96,0.432 -2.496,1.728 -2.88,2.448 -4.128,4.512 -1.2,2.016 -1.2,4.416 0,3.504 2.448,5.76 2.448,2.208 6.336,2.208 z" />
        <path
           id="path6360"
           style=""
           d="m 272.89875,74.823531 q 0,2.496 1.296,4.656 1.344,2.112 3.36,2.112 2.88,0 6.336,-2.544 3.504,-2.544 5.664,-6.432 1.248,-2.256 2.064,-5.088 0.864,-2.832 0.864,-4.368 0,-0.48 -0.096,-0.672 -0.864,-0.432 -3.312,-0.432 -2.16,0 -3.84,0.432 -4.224,1.152 -8.304,5.424 -4.032,4.272 -4.032,6.912 z m 18.72,19.92 q 1.776,0 1.776,-1.44 0,-3.696 -0.24,-6.096 -0.24,-2.352 -0.624,-4.032 -0.336,-1.68 -0.432,-2.688 -0.144,-2.256 -0.336,-3.504 -1.344,1.776 -4.224,3.936 -2.88,2.112 -4.896,2.832 -2.352,0.816 -5.136,0.816 -1.728,0 -2.832,-0.384 -1.056,-0.384 -2.64,-1.68 -1.488,-1.248 -2.16,-2.304 -0.624,-1.104 -0.96,-2.832 -0.336,-1.776 -0.336,-3.024 0,-1.92 1.776,-4.992 1.776,-3.12 3.024,-4.656 1.152,-1.44 4.176,-3.168 3.024,-1.776 5.328,-2.448 2.448,-0.768 5.568,-0.768 3.888,0 6.48,1.296 2.64,1.296 2.64,4.128 0,1.488 -0.72,3.552 -0.672,2.016 -0.672,3.456 0,0.864 0.096,2.496 0.144,1.584 0.432,5.376 0.336,3.744 0.576,7.488 l 0.72,9.936 -1.92,1.536 q -1.488,1.248 -3.12,1.248 -2.88,0 -6.912,-1.296 -3.984,-1.296 -6.912,-3.12 -2.88,-1.824 -2.88,-3.12 0,-1.68 1.584,-3.6 1.632,-1.92 2.832,-1.92 1.824,0 1.824,1.344 0,0.576 -0.48,1.44 -0.48,0.864 -0.48,1.536 0,1.008 1.632,1.872 1.68,0.864 2.832,0.864 0.96,0 2.688,0.96 1.776,0.96 2.928,0.96 z" />
        <path
           id="path6362"
           style=""
           d="m 309.132,65.271531 q 4.032,-3.456 6.864,-4.56 2.88,-1.104 7.2,-1.104 6.672,0 8.352,3.744 0.96,2.112 0.96,5.232 0,4.944 -2.4,10.08 -2.352,5.136 -6,7.2 -3.552,1.968 -7.536,1.968 -5.856,0 -8.928,-3.456 -2.16,-2.4 -2.832,-4.08 -0.624,-1.728 -0.624,-4.752 0,-6 4.944,-10.272 z m 8.688,18.576 q 3.936,0 7.248,-4.992 3.36,-5.04 3.36,-11.424 0,-0.672 -0.144,-1.056 -0.096,-0.384 -0.24,-0.528 -0.144,-0.192 -0.528,-0.48 -1.728,-1.248 -3.648,-1.248 -0.288,0 -0.816,0.096 -0.48,0.048 -1.488,0.192 -0.96,0.096 -2.112,0.192 -1.584,0.144 -2.592,0.624 -0.96,0.432 -2.496,1.728 -2.88,2.448 -4.128,4.512 -1.2,2.016 -1.2,4.416 0,3.504 2.448,5.76 2.448,2.208 6.336,2.208 z" />
        <path
           id="path6364"
           style=""
           d="m 339.282,83.703531 q 0,-0.816 0.432,-1.392 0.432,-0.624 1.056,-0.624 1.2,0 2.112,1.68 0.528,1.008 2.304,1.92 1.776,0.864 3.312,0.864 1.92,0 3.504,-2.112 1.632,-2.16 1.632,-3.312 0,-0.192 -0.144,-0.528 -0.144,-0.384 -0.816,-1.008 -0.624,-0.624 -1.632,-0.912 -1.632,-0.48 -3.552,-1.2 -1.92,-0.768 -2.832,-0.96 -1.44,-0.288 -3.792,-2.016 -2.352,-1.728 -2.352,-3.648 0,-1.92 2.736,-4.944 2.736,-3.024 6.768,-3.888 l 4.8,-0.432 q 1.296,0 1.968,0.336 0.672,0.288 1.68,1.44 1.632,1.872 1.632,2.736 0,1.2 -1.248,1.2 -1.056,0 -2.16,-1.104 -1.056,-1.152 -2.64,-1.152 -2.16,0 -4.512,1.248 -2.304,1.2 -3.648,2.544 -1.344,1.296 -1.344,1.872 0,0.384 0.528,0.912 0.576,0.48 1.872,1.152 1.344,0.672 3.168,1.2 5.04,1.488 6.96,2.928 1.92,1.44 1.92,4.032 0,2.256 -0.816,4.08 -0.672,1.584 -2.64,3.264 -1.968,1.728 -4.032,1.728 -1.488,0 -3.888,-0.432 -2.352,-0.384 -3.648,-0.96 -1.056,-0.528 -1.872,-1.872 -0.816,-1.392 -0.816,-2.64 z" />
      </g>
    </g>
  </g>
</svg>
